<svg xmlns="http://www.w3.org/2000/svg" width="24" height="24" viewBox="0 0 24 24" fill="none"><path d="M20.5 16.5a.5.5 0 0 1-.5-.5V8.9c0-2.158 0-3.24-.38-3.989a3.482 3.482 0 0 0-1.531-1.53C17.339 3 16.257 3 14.099 3H7a.5.5 0 1 1 0-1h7.1c2.317 0 3.48 0 4.443.49a4.477 4.477 0 0 1 1.967 1.967C21 5.419 21 6.583 21 8.9V16a.5.5 0 0 1-.5.5Z" fill="#fff"/><path d="M15 21H4.5A2.503 2.503 0 0 1 2 18.5V8c0-1.378 1.122-2.5 2.5-2.5H15c1.379 0 2.5 1.122 2.5 2.5v10.5c0 1.379-1.121 2.5-2.5 2.5ZM4.5 6.5C3.673 6.5 3 7.173 3 8v10.5c0 .827.673 1.5 1.5 1.5H15c.827 0 1.5-.673 1.5-1.5V8c0-.827-.673-1.5-1.5-1.5H4.5Z" fill="#fff"/><path d="m7.845 17-.039-.001a.861.861 0 0 1-.622-.313C7 16.46 7 16.198 7 15.804v-4.607c0-.395 0-.656.183-.882A.86.86 0 0 1 7.805 10c.278-.008.482.114.828.33l3.71 2.307c.292.181.483.302.587.532.093.21.093.45 0 .657-.104.233-.295.354-.584.533L8.64 16.665c-.33.206-.537.335-.795.335ZM8 11.115v4.771l.111-.07 3.704-2.303.021-.013-.02-.013-3.704-2.303a9.939 9.939 0 0 0-.112-.07Z" fill="#fff"/></svg>