<svg xmlns="http://www.w3.org/2000/svg" width="24" height="24" viewBox="0 0 24 24" fill="none"><path d="M14 17.499h-4a.5.5 0 1 1 0-1h4a.5.5 0 1 1 0 1Z" fill="#CBD2D9"/><path d="M17.8 21.499H6.2c-1.198 0-1.8 0-2.335-.273a2.49 2.49 0 0 1-1.093-1.091c-.272-.536-.272-1.137-.272-2.336v-7.235c0-.6 0-.93.093-1.261.082-.293.216-.567.397-.812.203-.276.462-.477.933-.844L10.71 2.37c.392-.305.607-.473.899-.551.255-.07.526-.07.783 0 .29.078.506.246.897.55l6.782 5.275c.474.368.735.571.939.847.181.246.315.52.397.814.093.33.093.66.093 1.26V17.8c0 1.199 0 1.8-.273 2.335-.242.473-.619.85-1.091 1.092-.535.273-1.137.273-2.336.273ZM12 2.766a.512.512 0 0 0-.13.017c-.097.026-.276.165-.545.375L4.542 8.432c-.418.327-.626.488-.748.653a1.492 1.492 0 0 0-.238.487c-.056.2-.056.464-.056.992v7.235c0 1.039 0 1.56.164 1.881.144.284.37.51.655.656.32.163.842.163 1.881.163h11.6c1.039 0 1.56 0 1.882-.163.283-.146.51-.372.655-.656.163-.32.163-.842.163-1.881v-7.235c0-.528 0-.793-.056-.99a1.497 1.497 0 0 0-.238-.489c-.123-.166-.332-.328-.748-.653l-6.783-5.274c-.27-.21-.448-.349-.544-.374A.503.503 0 0 0 12 2.766Z" fill="#CBD2D9"/></svg>