<svg xmlns="http://www.w3.org/2000/svg" width="24" height="24" viewBox="0 0 24 24" fill="none"><path d="M7.758 21.74a5.482 5.482 0 0 1-3.89-1.608 5.507 5.507 0 0 1 0-7.778l1.415-1.414a.5.5 0 1 1 .707.707l-1.414 1.414a4.507 4.507 0 0 0 0 6.364 4.507 4.507 0 0 0 6.364 0l1.414-1.414a.5.5 0 0 1 .708.707l-1.415 1.414a5.483 5.483 0 0 1-3.89 1.609ZM8.5 16a.5.5 0 0 1-.354-.853l7-7a.5.5 0 1 1 .708.707l-7 7A.498.498 0 0 1 8.5 16Zm9.863-2.793a.5.5 0 0 1-.354-.854l1.415-1.413a4.468 4.468 0 0 0 1.318-3.182 4.469 4.469 0 0 0-1.318-3.182 4.468 4.468 0 0 0-3.182-1.318 4.468 4.468 0 0 0-3.181 1.318L11.647 5.99a.5.5 0 1 1-.707-.707l1.414-1.414a5.463 5.463 0 0 1 3.89-1.611c1.468 0 2.85.572 3.888 1.61a5.463 5.463 0 0 1 1.611 3.89c0 1.47-.572 2.85-1.611 3.889l-1.414 1.414a.498.498 0 0 1-.354.146Z" fill="#fff"/></svg>