<svg xmlns="http://www.w3.org/2000/svg" width="24" height="24" viewBox="0 0 24 24" fill="none"><path d="M16.243 16.743a.499.499 0 0 1-.354-.853 5.508 5.508 0 0 0 0-7.779.5.5 0 1 1 .707-.707 6.51 6.51 0 0 1 0 9.193.499.499 0 0 1-.353.146Zm-8.485 0a.499.499 0 0 1-.354-.146 6.508 6.508 0 0 1 0-9.193.5.5 0 1 1 .707.707 5.507 5.507 0 0 0 0 7.779.5.5 0 0 1-.353.853Z" fill="#fff"/><path d="M4.93 19.572a.499.499 0 0 1-.353-.146C.482 15.332.482 8.67 4.577 4.576a.5.5 0 1 1 .707.707A9.438 9.438 0 0 0 2.5 12.001c0 2.538.988 4.924 2.783 6.718a.5.5 0 0 1-.354.853Zm14.14 0a.498.498 0 0 1-.353-.853A9.438 9.438 0 0 0 21.5 12a9.44 9.44 0 0 0-2.782-6.718.5.5 0 1 1 .707-.707A10.431 10.431 0 0 1 22.5 12a10.43 10.43 0 0 1-3.075 7.425.499.499 0 0 1-.353.146ZM12 14.5a2.5 2.5 0 1 0 0-5 2.5 2.5 0 0 0 0 5Z" fill="#fff"/></svg>