<svg xmlns="http://www.w3.org/2000/svg" width="24" height="24" viewBox="0 0 24 24" fill="none"><path d="M21 16.5a.5.5 0 0 1-.5-.5V8.9c0-2.158 0-3.24-.38-3.989a3.482 3.482 0 0 0-1.531-1.53C17.839 3 16.757 3 14.599 3H7.5a.5.5 0 1 1 0-1h7.1c2.317 0 3.48 0 4.443.49a4.477 4.477 0 0 1 1.967 1.967c.49.962.49 2.126.49 4.443V16a.5.5 0 0 1-.5.5Z" fill="#fff"/><path fill-rule="evenodd" clip-rule="evenodd" d="M2.24 6.705C2 7.177 2 7.795 2 9.031v8.938c0 1.236 0 1.854.24 2.326.212.415.55.753.965.964.472.241 1.09.241 2.326.241h8.938c1.236 0 1.854 0 2.326-.24.415-.212.753-.55.964-.965.241-.472.241-1.09.241-2.326V9.031c0-1.236 0-1.854-.24-2.326a2.207 2.207 0 0 0-.965-.964c-.472-.241-1.09-.241-2.326-.241H5.531c-1.236 0-1.854 0-2.326.24-.415.212-.753.55-.964.965Zm5.831 3.925C8 10.718 8 10.878 8 11.197v4.606c0 .32 0 .479.071.567a.36.36 0 0 0 .26.13c.118.006.26-.082.545-.26l3.703-2.303c.236-.146.353-.219.394-.311a.308.308 0 0 0 0-.252c-.04-.092-.158-.165-.394-.311l-3.703-2.304c-.285-.177-.427-.265-.545-.259a.36.36 0 0 0-.26.13Z" fill="#fff"/></svg>