<svg xmlns="http://www.w3.org/2000/svg" width="24" height="24" viewBox="0 0 24 24" fill="none"><path d="M16.95 7.05a1 1 0 1 0-1.415 1.415 5.006 5.006 0 0 1 0 7.071 1 1 0 1 0 1.414 1.414 7.01 7.01 0 0 0 0-9.9Zm-8.486 0a1 1 0 0 0-1.414 0 7.01 7.01 0 0 0 0 9.9.997.997 0 0 0 1.414 0 1 1 0 0 0 0-1.414 5.006 5.006 0 0 1 0-7.071 1 1 0 0 0 0-1.414Z" fill="#fff"/><path d="M5.637 5.637a1 1 0 1 0-1.414-1.414c-4.29 4.289-4.29 11.267 0 15.556a.997.997 0 0 0 1.414 0 1 1 0 0 0 0-1.414c-3.51-3.51-3.51-9.219 0-12.728Zm14.14-1.414a1 1 0 1 0-1.414 1.414c3.51 3.509 3.51 9.218 0 12.728a1 1 0 1 0 1.414 1.414c4.29-4.289 4.29-11.267 0-15.556Z" fill="#fff"/><path d="M12 15a3 3 0 1 0 0-6 3 3 0 0 0 0 6Z" fill="#FD4141"/></svg>