<svg xmlns="http://www.w3.org/2000/svg" width="24" height="24" viewBox="0 0 24 24" fill="none"><path fill-rule="evenodd" clip-rule="evenodd" d="m8.006 2.804.036.024 10.549 7.033c.305.203.588.392.805.567.227.183.495.437.649.808a2 2 0 0 1 0 1.532c-.154.371-.422.625-.649.808-.217.175-.5.364-.805.567L8.006 21.199a13.96 13.96 0 0 1-.993.627c-.285.155-.676.331-1.132.304a2 2 0 0 1-1.476-.79c-.276-.365-.346-.788-.376-1.11C4 19.907 4 19.504 4 19.055V4.948c0-.448 0-.851.03-1.174.029-.322.1-.746.375-1.11a2 2 0 0 1 1.476-.79c.456-.027.847.15 1.132.303.285.155.62.378.993.627Z" fill="#fff"/></svg>